<?xml version="1.0" encoding="UTF-8"?><svg id="_レイヤー_2" xmlns="http://www.w3.org/2000/svg" viewBox="0 0 1317.11 1004.93"><defs><style>.cls-1,.cls-2{fill:#fff;}.cls-2,.cls-3{stroke:#000;stroke-miterlimit:10;stroke-width:20px;}.cls-3{fill:none;}</style></defs><g id="_レイヤー_2-2"><polygon class="cls-2" points="330.92 767.71 36.5 635.5 330.92 597.77 39.43 216.24 482.22 480.11 456.99 171.37 585.81 444.67 727.56 50.75 746.65 458.3 836.61 399.69 844.79 613.69 640.33 777.25 330.92 767.71"/><g><g><path class="cls-1" d="M610.2,994.93c-80.09,0-150.12-11.04-202.51-31.92-55.9-22.28-90.42-55.4-99.82-95.77-13.67-58.71,26.59-125.49,113.38-188.04,84.35-60.8,203.37-111.18,335.13-141.87,83.92-19.54,168.91-29.87,245.78-29.87s150.12,11.04,202.51,31.92c55.9,22.28,90.42,55.4,99.82,95.77,13.67,58.71-26.59,125.49-113.38,188.04-84.35,60.8-203.37,111.18-335.13,141.87-83.92,19.54-168.91,29.87-245.78,29.87Z"/><path d="M1002.16,517.47c157.9,0,274.73,43.23,292.59,119.95,26.25,112.73-171.21,255.06-441.04,317.9-86.2,20.07-169.4,29.61-243.51,29.61-157.9,0-274.73-43.23-292.59-119.95-26.25-112.73,171.21-255.06,441.04-317.9,86.2-20.07,169.4-29.61,243.52-29.61m.04-20v0c-77.68,0-163.46,10.42-248.09,30.13-133.02,30.98-253.31,81.94-338.71,143.49-90.27,65.07-131.92,135.53-117.27,198.42,10.18,43.7,46.78,79.24,105.86,102.79,53.55,21.35,124.86,32.63,206.21,32.63s163.4-10.42,248.05-30.13c133.02-30.98,253.31-81.94,338.71-143.49,90.27-65.07,131.92-135.53,117.27-198.42-10.18-43.69-46.78-79.24-105.85-102.79-53.55-21.35-124.85-32.63-206.19-32.63h0Z"/></g><path class="cls-3" d="M480.27,827.09c61.69,33.13,195.73,35.53,343.82,1.04,148.09-34.49,267.28-95.85,307.99-152.83"/></g><g><path class="cls-1" d="M438.15,460.66l-90.97,11.54-3.43-3.24c-64.92-61.15-115.9-121.68-147.43-175.03-39.58-66.98-49.13-122.78-28.36-165.85l5.93-12.3L740.11,649.14l-57.33,60.86-244.63-249.35Z"/><path d="M176.96,132.43L725.97,649.56l-43.34,46.01-240.82-245.46-91.21,11.58c-115.2-108.51-215.4-242.64-173.64-329.26m-6.16-33.28l-11.86,24.59c-22.31,46.27-12.63,105.24,28.76,175.28,40.43,68.41,103.44,134.14,149.19,177.22l6.87,6.47,9.36-1.19,81.36-10.33,233.87,238.38,14.57,14.85,14.26-15.14,43.34-46.01,13.71-14.56-14.56-13.71L190.67,117.87l-19.87-18.72h0Z"/></g><g><path class="cls-1" d="M863.29,476.54l-43.98-6.67c-19.72-2.99-36.22-16.84-43.06-36.14l-73.4-207.1,47.33-17.91,55.22,145.96c1.44,3.81,5.15,6.37,9.22,6.37,1.18,0,2.36-.22,3.48-.64,5.08-1.92,7.65-7.62,5.73-12.7l-55.22-145.96,48.42-18.32,55.22,145.96c1.44,3.81,5.15,6.37,9.22,6.37,1.18,0,2.36-.22,3.48-.64,5.08-1.92,7.65-7.62,5.73-12.7l-55.22-145.96,47.33-17.91,82.06,203.82c7.65,19,4.45,40.3-8.36,55.59l-28.55,34.11,176.88,450.25-76.13,28.8-165.42-454.58Z"/><path d="M877.18,171.37l78.4,194.74c6.24,15.49,3.63,33.04-6.75,45.44l-32.36,38.66,175.35,446.34-28.59,10.82-28.59,10.82-163.99-450.64-49.84-7.56c-15.99-2.42-29.55-13.85-35.13-29.59l-70.12-197.87,28.82-10.9,51.68,136.6c3,7.94,10.56,12.83,18.57,12.83,2.33,0,4.71-.42,7.02-1.29,10.26-3.88,15.42-15.34,11.54-25.59l-51.68-136.6,14.86-5.62,14.86-5.62,51.68,136.6c3.01,7.94,10.56,12.83,18.57,12.83,2.33,0,4.71-.42,7.02-1.29,10.26-3.88,15.42-15.34,11.54-25.59l-51.68-136.6,28.82-10.9m11.24-25.64l-18.32,6.93-28.82,10.9-18.71,7.08-18.43,6.97-14.86,5.62-14.86,5.62-18.43,6.97h0s-18.71,7.08-18.71,7.08l-28.82,10.9-18.32,6.93,6.54,18.46,70.12,197.87c8.07,22.78,27.61,39.14,50.98,42.69l38.11,5.78,159.93,439.49,6.93,19.03,18.94-7.17,28.59-10.82,28.59-10.82,18.94-7.17-7.41-18.85-171.01-435.3,24.74-29.56c15.17-18.13,18.99-43.32,9.96-65.74l-78.4-194.74-7.31-18.17h0Z"/></g></g></svg>