<?xml version="1.0" encoding="UTF-8"?><svg id="_レイヤー_2" xmlns="http://www.w3.org/2000/svg" viewBox="0 0 1272.55 937.43"><defs><style>.cls-1{fill:#fff;stroke:#000;stroke-miterlimit:10;stroke-width:20px;}</style></defs><g id="_レイヤー_2-2"><polygon class="cls-1" points="534.66 238.48 138.64 680.83 187.06 560.3 42.24 684.74 145.38 517.37 53.28 557.38 393.03 85.33 534.66 238.48"/><g><g><path class="cls-1" d="M881.15,546.03c51.22-51.22,74.23-111.24,51.4-134.07L539.42,18.82c-22.83-22.83-82.85,.19-134.07,51.4-51.22,51.22-74.23,111.24-51.4,134.07l393.14,393.14c22.83,22.83,82.85-.19,134.07-51.41Z"/><ellipse class="cls-1" cx="839.82" cy="504.7" rx="131.15" ry="58.45" transform="translate(-110.9 741.66) rotate(-45)"/></g><g><path class="cls-1" d="M986.33,651.21c58.12-58.12,84.23-126.23,58.33-152.13L598.57,52.99c-25.9-25.9-94.01,.21-152.13,58.33-58.12,58.12-84.23,126.23-58.33,152.13l446.09,446.09c25.9,25.9,94.01-.21,152.13-58.33Z"/><ellipse class="cls-1" cx="939.43" cy="604.31" rx="148.82" ry="66.33" transform="translate(-152.16 841.28) rotate(-45)"/></g><g><path class="cls-1" d="M1162.78,827.66c65.53-65.53,94.97-142.33,65.77-171.53L725.57,153.14c-29.21-29.21-106,.24-171.53,65.77s-94.97,142.33-65.77,171.53l502.99,502.99c29.21,29.21,106-.24,171.53-65.77Z"/><ellipse class="cls-1" cx="1109.9" cy="774.78" rx="167.8" ry="74.79" transform="translate(-222.77 1011.75) rotate(-45)"/></g><g><g><path class="cls-1" d="M1185.5,850.38c65.53-65.53,94.97-142.33,65.77-171.53l-127.06-127.06c-29.21-29.21-106,.24-171.53,65.77s-94.97,142.33-65.77,171.53l127.06,127.06c29.21,29.21,106-.24,171.53-65.77Z"/><ellipse class="cls-1" cx="1132.62" cy="797.5" rx="167.8" ry="74.79" transform="translate(-232.18 1034.46) rotate(-45)"/></g><g><line class="cls-1" x1="1191.45" y1="669.83" x2="1066.63" y2="545"/><line class="cls-1" x1="1134.48" y1="706.1" x2="1009.65" y2="581.28"/><line class="cls-1" x1="1077.5" y1="742.38" x2="952.68" y2="617.56"/><line class="cls-1" x1="1041.22" y1="799.36" x2="916.4" y2="674.53"/><line class="cls-1" x1="1004.95" y1="856.33" x2="880.12" y2="731.51"/></g></g></g></g></svg>