<?xml version="1.0" encoding="UTF-8"?><svg id="_レイヤー_2" xmlns="http://www.w3.org/2000/svg" viewBox="0 0 937.43 937.43"><defs><style>.cls-1{fill:#fff;stroke:#000;stroke-miterlimit:10;stroke-width:20px;}</style></defs><g id="_レイヤー_2-2"><g><g><path class="cls-1" d="M546.03,546.03c51.22-51.22,74.23-111.24,51.4-134.07L204.3,18.82c-22.83-22.83-82.85,.19-134.07,51.4S-4.01,181.47,18.82,204.3l393.14,393.14c22.83,22.83,82.85-.19,134.07-51.41Z"/><ellipse class="cls-1" cx="504.7" cy="504.7" rx="131.15" ry="58.45" transform="translate(-209.05 504.7) rotate(-45)"/></g><g><path class="cls-1" d="M651.21,651.21c58.12-58.12,84.23-126.23,58.33-152.13L263.45,52.99c-25.9-25.9-94.01,.21-152.13,58.33-58.12,58.12-84.23,126.23-58.33,152.13l446.09,446.09c25.9,25.9,94.01-.21,152.13-58.33Z"/><ellipse class="cls-1" cx="604.31" cy="604.31" rx="148.82" ry="66.33" transform="translate(-250.31 604.31) rotate(-45)"/></g><g><path class="cls-1" d="M827.66,827.66c65.53-65.53,94.97-142.33,65.77-171.53L390.45,153.14c-29.21-29.21-106,.24-171.53,65.77s-94.97,142.33-65.77,171.53l502.99,502.99c29.21,29.21,106-.24,171.53-65.77Z"/><ellipse class="cls-1" cx="774.78" cy="774.78" rx="167.8" ry="74.79" transform="translate(-320.93 774.78) rotate(-45)"/></g><g><g><path class="cls-1" d="M850.38,850.38c65.53-65.53,94.97-142.33,65.77-171.53l-127.06-127.06c-29.21-29.21-106,.24-171.53,65.77s-94.97,142.33-65.77,171.53l127.06,127.06c29.21,29.21,106-.24,171.53-65.77Z"/><ellipse class="cls-1" cx="797.5" cy="797.5" rx="167.8" ry="74.79" transform="translate(-330.33 797.5) rotate(-45)"/></g><g><line class="cls-1" x1="856.33" y1="669.83" x2="731.51" y2="545"/><line class="cls-1" x1="799.36" y1="706.1" x2="674.53" y2="581.28"/><line class="cls-1" x1="742.38" y1="742.38" x2="617.56" y2="617.56"/><line class="cls-1" x1="706.1" y1="799.36" x2="581.28" y2="674.53"/><line class="cls-1" x1="669.83" y1="856.33" x2="545" y2="731.51"/></g></g></g></g></svg>