<?xml version="1.0" encoding="UTF-8"?><svg id="_レイヤー_2" xmlns="http://www.w3.org/2000/svg" viewBox="0 0 97.98 83.4"><defs><style>.cls-1{fill:#fff;}</style></defs><g id="_レイヤー_2-2"><g><path class="cls-1" d="M4,52.78v13.31c0,7.35,20.14,13.31,44.99,13.31s44.99-5.96,44.99-13.31v-13.31H4Z"/><path d="M48.99,83.4C25.4,83.4,0,77.98,0,66.09v-13.31c0-2.21,1.79-4,4-4H93.98c2.21,0,4,1.79,4,4v13.31c0,11.89-25.39,17.31-48.99,17.31ZM8,56.78v9.31c0,2.17,12.78,9.31,40.99,9.31s40.99-7.14,40.99-9.31v-9.31H8Z"/></g><g><ellipse class="cls-1" cx="48.99" cy="52.78" rx="44.99" ry="13.31"/><path d="M48.99,70.09C25.4,70.09,0,64.68,0,52.78s25.4-17.31,48.99-17.31,48.99,5.42,48.99,17.31-25.4,17.31-48.99,17.31Zm0-26.61c-28.21,0-40.99,7.14-40.99,9.31s12.78,9.31,40.99,9.31,40.99-7.14,40.99-9.31-12.78-9.31-40.99-9.31Z"/></g><g><path class="cls-1" d="M15.72,13.84v29.4c0,5.43,14.89,9.84,33.27,9.84s33.27-4.41,33.27-9.84V13.84H15.72Z"/><path d="M48.99,57.08c-13.84,0-37.27-2.91-37.27-13.84V13.84c0-2.21,1.79-4,4-4H82.26c2.21,0,4,1.79,4,4v29.4c0,10.92-23.43,13.84-37.27,13.84Zm-29.27-14.07c1.25,1.88,11,6.07,29.27,6.07s28.02-4.2,29.27-6.07V17.84H19.72v25.17Z"/></g><g><ellipse class="cls-1" cx="48.99" cy="13.84" rx="33.27" ry="9.84"/><path d="M48.99,27.68c-13.84,0-37.27-2.91-37.27-13.84S35.15,0,48.99,0s37.27,2.92,37.27,13.84-23.43,13.84-37.27,13.84ZM19.91,13.84c1.84,1.97,11.53,5.84,29.08,5.84s27.24-3.87,29.08-5.84c-1.84-1.97-11.53-5.84-29.08-5.84s-27.24,3.87-29.08,5.84Z"/></g></g></svg>