<?xml version="1.0" encoding="UTF-8"?><svg id="_レイヤー_2" xmlns="http://www.w3.org/2000/svg" viewBox="0 0 1560.9 940.15"><defs><style>.cls-1{fill:#fff;}</style></defs><g id="_レイヤー_2-2"><g><path class="cls-1" d="M313.41,117.38v-50.2c0-2.32,1.88-4.19,4.19-4.19h208.3c2.32,0,4.19,1.88,4.19,4.19v50.2c0,2.32-1.88,4.19-4.19,4.19h-208.3c-2.32,0-4.19-1.88-4.19-4.19Zm4.19,107.35h208.3c2.32,0,4.19-1.88,4.19-4.19v-50.2c0-2.32-1.88-4.19-4.19-4.19h-208.3c-2.32,0-4.19,1.88-4.19,4.19v50.2c0,2.32,1.88,4.19,4.19,4.19Zm0,103.15h208.3c2.32,0,4.19-1.88,4.19-4.19v-50.2c0-2.32-1.88-4.19-4.19-4.19h-208.3c-2.32,0-4.19,1.88-4.19,4.19v50.2c0,2.32,1.88,4.19,4.19,4.19Zm797.22,173.75h408.76c7.36,0,13.32-5.96,13.32-13.32v-91.08c0-7.36-5.96-13.32-13.32-13.32h-408.76c-7.36,0-13.32,5.96-13.32,13.32v91.08c0,7.36,5.96,13.32,13.32,13.32Zm0,207.26h408.76c7.36,0,13.32-5.96,13.32-13.32v-91.08c0-7.36-5.96-13.32-13.32-13.32h-408.76c-7.36,0-13.32,5.96-13.32,13.32v91.08c0,7.36,5.96,13.32,13.32,13.32Zm0,207.26h408.76c7.36,0,13.32-5.96,13.32-13.32v-91.08c0-7.36-5.96-13.32-13.32-13.32h-408.76c-7.36,0-13.32,5.96-13.32,13.32v91.08c0,7.36,5.96,13.32,13.32,13.32ZM274.98,379.7H37.32c-7.36,0-13.32,5.96-13.32,13.32v91.08c0,7.36,5.96,13.32,13.32,13.32h237.66c7.36,0,13.32-5.96,13.32-13.32v-91.08c0-7.36-5.96-13.32-13.32-13.32ZM38.03,693.88h237.66c7.36,0,13.32-5.96,13.32-13.32v-91.08c0-7.36-5.96-13.32-13.32-13.32H38.03c-7.36,0-13.32,5.96-13.32,13.32v91.08c0,7.36,5.96,13.32,13.32,13.32ZM719.33,269.29h-85.44v-49.15h107.25c2.32,0,4.19-1.88,4.19-4.19v-50.2c0-2.32-1.88-4.19-4.19-4.19h-48.94V67.19c0-2.32-1.88-4.19-4.19-4.19h-52.88c-2.32,0-4.19,1.88-4.19,4.19v94.37h-54.12c-2.32,0-4.19,1.88-4.19,4.19h0v157.93c0,2.32,1.88,4.19,4.19,4.19h142.51c2.32,0,4.19-1.88,4.19-4.19v-50.2c0-2.32-1.88-4.19-4.19-4.19Zm800.16-107.73h-168.52c-2.32,0-4.19,1.88-4.19,4.19h0v157.93c0,2.32,1.88,4.19,4.19,4.19h93.99c2.32,0,4.19-1.88,4.19-4.19v-50.2c0-2.32-1.88-4.19-4.19-4.19h-36.92v-49.15h67.59v103.54c0,2.32,1.88,4.19,4.19,4.19h52.88c2.32,0,4.19-1.88,4.19-4.19V165.75c0-2.32-1.88-4.19-4.19-4.19h-13.21ZM141.91,334.31l57.85-6.02c2.3-.24,3.98-2.3,3.74-4.61l-5.7-54.82h75.09c2.32,0,4.19-1.88,4.19-4.19v-52.09c0-2.32-1.88-4.19-4.19-4.19h-81.38l-5.78-55.62h79.5c2.32,0,4.19-1.88,4.19-4.19v-52.09c0-2.32-1.88-4.19-4.19-4.19h-82.01c-2.15,0-3.95-1.62-4.17-3.76l-5.26-50.55c-.24-2.3-2.3-3.98-4.61-3.74l-57.85,6.02c-2.3,.24-3.98,2.3-3.74,4.61l4.93,47.43H28.19c-2.32,0-4.19,1.88-4.19,4.19v52.09c0,2.32,1.88,4.19,4.19,4.19H118.81l5.78,55.62H28.19c-2.32,0-4.19,1.88-4.19,4.19v52.09c0,2.32,1.88,4.19,4.19,4.19h102.69l6.42,61.7c.24,2.3,2.3,3.98,4.61,3.74Zm749.48-6.43h58.16c2.32,0,4.19-1.88,4.19-4.19V152.77h93.7c2.32,0,4.19-1.88,4.19-4.19v-29.93c0-2.32-1.88-4.19-4.19-4.19h-61.61c-2.32,0-4.19-1.88-4.19-4.19v-13.77c0-2.32-1.88-4.19-4.19-4.19h-23.69V36.76c0-2.32-1.88-4.19-4.19-4.19h-58.16c-2.32,0-4.19,1.88-4.19,4.19v55.53h-99.02c-2.32,0-4.19,1.88-4.19,4.19v52.09c0,2.32,1.88,4.19,4.19,4.19h99.02v170.92c0,2.32,1.88,4.19,4.19,4.19ZM374.11,786.61H37.32c-7.36,0-13.32,5.96-13.32,13.32v102.89c0,7.36,5.96,13.32,13.32,13.32H494.51c7.36,0,13.32-5.96,13.32-13.32V495.49c0-7.36-5.96-13.32-13.32-13.32h-107.08c-7.36,0-13.32,5.96-13.32,13.32v291.12ZM1178.55,135.36h69.94c-9.66,59.01-28.9,118.03-59.85,163.65-1.48,2.19-.58,5.18,1.86,6.2l59.32,24.81c1.87,.78,4.03,.12,5.13-1.57,32.23-49.37,65.71-157.59,71.66-253.35,.15-2.41-1.78-4.44-4.19-4.44h-31.64s-35.4,0-35.4,0h-131.36c-2.15,0-3.96,1.62-4.17,3.76-4.65,47.21-26.47,99.27-44.18,130.49-1.27,2.24-.22,5.08,2.19,5.98l59.53,22.22c1.95,.73,4.13-.07,5.13-1.89,11.88-21.56,26.08-57.15,36.02-95.87Zm-276.35,252.77h-259.52c-6.8,0-12.5,5.11-13.23,11.87-9.96,91.27-51.06,190.78-85.56,252.97-3.95,7.12-.63,16.07,7,18.92l110.28,41.16c6.25,2.33,13.25-.32,16.4-6.2,23.42-43.64,50.87-113.22,70.26-188.74h140.55c-19.06,116.47-56.73,232.95-117,323.93-4.62,6.98-1.77,16.43,5.95,19.66l109.93,45.98c5.99,2.5,12.9,.34,16.38-5.14,63.46-99.84,128.67-311.4,141.36-500.22,.52-7.68-5.6-14.19-13.3-14.19h-58.37s-71.13,0-71.13,0ZM1027.34,24h-27.52c-2.32,0-4.19,1.88-4.19,4.19V97.25c0,2.32,1.88,4.19,4.19,4.19h27.52c2.32,0,4.19-1.88,4.19-4.19V28.19c0-2.32-1.88-4.19-4.19-4.19Zm50.55,0h-27.52c-2.32,0-4.19,1.88-4.19,4.19V97.25c0,2.32,1.88,4.19,4.19,4.19h27.52c2.32,0,4.19-1.88,4.19-4.19V28.19c0-2.32-1.88-4.19-4.19-4.19Zm-222.84,159.22h-48.48c-2.27,0-4.13,1.8-4.19,4.07-.97,40.42-16.04,80.32-28.8,102.86-1.28,2.26-.25,5.12,2.18,6.02l45.29,16.77c1.96,.73,4.16-.09,5.15-1.93,15.17-28.28,32.01-78.78,33.04-123.47,.05-2.36-1.83-4.31-4.2-4.31Zm126.63,4.31c1.04,44.7,17.88,95.19,33.04,123.47,.99,1.84,3.19,2.66,5.15,1.93l45.29-16.77c2.43-.9,3.46-3.76,2.18-6.02-12.76-22.54-27.83-62.44-28.8-102.86-.05-2.27-1.92-4.07-4.19-4.07h-48.48c-2.36,0-4.25,1.95-4.2,4.31Z"/><path d="M1077.89,24c2.32,0,4.19,1.88,4.19,4.19V97.25c0,2.32-1.88,4.19-4.19,4.19h-27.52c-2.32,0-4.19-1.88-4.19-4.19V28.19c0-2.32,1.88-4.19,4.19-4.19h27.52m-50.55,0c2.32,0,4.19,1.88,4.19,4.19V97.25c0,2.32-1.88,4.19-4.19,4.19h-27.52c-2.32,0-4.2-1.88-4.2-4.19V28.19c0-2.32,1.88-4.19,4.2-4.19h27.52m-77.8,8.56c2.32,0,4.19,1.88,4.19,4.19v55.53h23.69c2.32,0,4.19,1.88,4.19,4.19v13.77c0,2.32,1.88,4.19,4.19,4.19h61.61c2.32,0,4.19,1.88,4.19,4.19v29.93c0,2.32-1.88,4.19-4.19,4.19h-93.7v170.92c0,2.32-1.88,4.19-4.19,4.19h-58.16c-2.32,0-4.19-1.88-4.19-4.19V152.77s-99.02,0-99.02,0c-2.32,0-4.2-1.88-4.2-4.19v-52.09c0-2.32,1.88-4.19,4.2-4.19h99.02V36.76c0-2.32,1.88-4.19,4.19-4.19h58.16m-779.94,1.65c2.12,0,3.94,1.6,4.17,3.76l5.26,50.55c.22,2.14,2.02,3.76,4.17,3.76h82.01c2.32,0,4.19,1.88,4.19,4.19v52.09c0,2.32-1.88,4.19-4.19,4.19h-79.5l5.78,55.62h81.38c2.32,0,4.19,1.88,4.19,4.19v52.09c0,2.32-1.88,4.19-4.19,4.19h-75.09l5.7,54.82c.24,2.3-1.43,4.37-3.74,4.61l-57.85,6.02c-.15,.02-.29,.02-.44,.02-2.12,0-3.94-1.6-4.17-3.76l-6.42-61.7H28.19c-2.32,0-4.19-1.88-4.19-4.19v-52.09c0-2.32,1.88-4.19,4.19-4.19H124.59l-5.78-55.62H28.19c-2.32,0-4.19-1.88-4.19-4.19v-52.09c0-2.32,1.88-4.19,4.19-4.19H112.52l-4.93-47.43c-.24-2.3,1.43-4.37,3.74-4.61l57.85-6.02c.15-.02,.29-.02,.44-.02m518.4,28.78c2.32,0,4.19,1.88,4.19,4.19v94.37h48.94c2.32,0,4.19,1.88,4.19,4.19v50.2c0,2.32-1.88,4.19-4.19,4.19h-107.25v49.15h85.44c2.32,0,4.19,1.88,4.19,4.19v50.2c0,2.32-1.88,4.19-4.19,4.19h-142.51c-2.32,0-4.19-1.88-4.19-4.19V165.75c0-2.32,1.88-4.19,4.19-4.19h54.12V67.19c0-2.32,1.88-4.19,4.19-4.19h52.88m-162.11,0c2.32,0,4.19,1.88,4.19,4.19v50.2c0,2.32-1.88,4.19-4.19,4.19h-208.3c-2.32,0-4.19-1.88-4.19-4.19v-50.2c0-2.32,1.88-4.19,4.19-4.19h208.3m796.53,7.68c2.41,0,4.34,2.03,4.19,4.44-5.95,95.76-39.43,203.97-71.66,253.35-.79,1.22-2.13,1.9-3.51,1.9-.54,0-1.1-.11-1.62-.33l-59.32-24.81c-2.44-1.02-3.34-4.02-1.86-6.2,30.95-45.63,50.19-104.64,59.85-163.65h-69.94c-9.94,38.72-24.14,74.31-36.02,95.87-.75,1.37-2.18,2.16-3.66,2.16-.49,0-.99-.09-1.47-.27l-59.53-22.22c-2.41-.9-3.46-3.74-2.19-5.98,17.7-31.21,39.52-83.27,44.18-130.49,.21-2.14,2.02-3.76,4.17-3.76h198.4m210.27,90.89c2.32,0,4.19,1.88,4.19,4.19v157.93c0,2.32-1.88,4.19-4.19,4.19h-52.88c-2.32,0-4.19-1.88-4.19-4.19v-103.54h-67.59v49.15h36.92c2.32,0,4.19,1.88,4.19,4.19v50.2c0,2.32-1.88,4.19-4.19,4.19h-93.99c-2.32,0-4.19-1.88-4.19-4.19V165.75c0-2.32,1.88-4.19,4.19-4.19h181.73m-1006.8,4.58c2.32,0,4.19,1.88,4.19,4.19v50.2c0,2.32-1.88,4.19-4.19,4.19h-208.3c-2.32,0-4.19-1.88-4.19-4.19v-50.2c0-2.32,1.88-4.19,4.19-4.19h208.3m508.46,17.08c2.27,0,4.13,1.8,4.19,4.07,.97,40.42,16.04,80.32,28.8,102.86,1.28,2.26,.25,5.12-2.18,6.02l-45.29,16.77c-.48,.18-.98,.26-1.46,.26-1.5,0-2.94-.81-3.68-2.2-15.17-28.28-32.01-78.78-33.04-123.47-.05-2.36,1.83-4.31,4.2-4.31h48.48m-179.31,0c2.36,0,4.25,1.95,4.2,4.31-1.04,44.7-17.88,95.19-33.04,123.47-.75,1.39-2.18,2.2-3.68,2.2-.49,0-.98-.09-1.46-.26l-45.29-16.77c-2.43-.9-3.46-3.76-2.18-6.02,12.76-22.54,27.83-62.44,28.8-102.86,.05-2.27,1.92-4.07,4.19-4.07h48.48m-329.15,86.07c2.32,0,4.19,1.88,4.19,4.19v50.2c0,2.32-1.88,4.19-4.19,4.19h-208.3c-2.32,0-4.19-1.88-4.19-4.19v-50.2c0-2.32,1.88-4.19,4.19-4.19h208.3m-250.92,110.4c7.36,0,13.32,5.96,13.32,13.32v91.08c0,7.36-5.96,13.32-13.32,13.32H37.32c-7.36,0-13.32-5.96-13.32-13.32v-91.08c0-7.36,5.96-13.32,13.32-13.32h237.66m1248.6,4.21c7.36,0,13.32,5.96,13.32,13.32v91.08c0,7.36-5.96,13.32-13.32,13.32h-408.76c-7.36,0-13.32-5.96-13.32-13.32v-91.08c0-7.36,5.96-13.32,13.32-13.32h408.76m-491.88,4.21c7.7,0,13.81,6.51,13.3,14.19-12.69,188.82-77.89,400.38-141.35,500.22-2.51,3.95-6.8,6.17-11.24,6.17-1.72,0-3.47-.33-5.14-1.03l-109.93-45.98c-7.72-3.23-10.57-12.68-5.95-19.66,60.27-90.98,97.94-207.46,117-323.93h-140.55c-19.39,75.52-46.84,145.11-70.26,188.74-2.38,4.44-6.96,7.04-11.75,7.04-1.55,0-3.12-.27-4.65-.84l-110.28-41.16c-7.63-2.85-10.95-11.8-7-18.92,34.5-62.19,75.6-161.7,85.56-252.97,.74-6.76,6.44-11.87,13.23-11.87h389.01m-537.19,94.04c7.36,0,13.32,5.96,13.32,13.32v407.34c0,7.36-5.96,13.32-13.32,13.32H37.32c-7.36,0-13.32-5.96-13.32-13.32v-102.89c0-7.36,5.96-13.32,13.32-13.32H374.11V495.49c0-7.36,5.96-13.32,13.32-13.32h107.08m-218.82,94c7.36,0,13.32,5.96,13.32,13.32v91.08c0,7.36-5.96,13.32-13.32,13.32H38.03c-7.36,0-13.32-5.96-13.32-13.32v-91.08c0-7.36,5.96-13.32,13.32-13.32h237.66m1247.89,15c7.36,0,13.32,5.96,13.32,13.32v91.08c0,7.36-5.96,13.32-13.32,13.32h-408.76c-7.36,0-13.32-5.96-13.32-13.32v-91.08c0-7.36,5.96-13.32,13.32-13.32h408.76m0,207.26c7.36,0,13.32,5.96,13.32,13.32v91.08c0,7.36-5.96,13.32-13.32,13.32h-408.76c-7.36,0-13.32-5.96-13.32-13.32v-91.08c0-7.36,5.96-13.32,13.32-13.32h408.76M1077.89,0h-27.52c-4.1,0-8,.88-11.51,2.46-3.52-1.58-7.42-2.46-11.51-2.46h-27.52c-12.93,0-23.85,8.74-27.16,20.63-5.1-7.29-13.56-12.06-23.11-12.06h-58.16c-15.55,0-28.19,12.65-28.19,28.19v31.53h-75.02c-15.55,0-28.2,12.65-28.2,28.19v48.31c-5-4.49-11.6-7.23-18.83-7.23h-24.94V67.19c0-15.55-12.65-28.19-28.19-28.19h-52.88c-15.55,0-28.19,12.65-28.19,28.19v70.37h-30.12c-12.19,0-22.6,7.78-26.53,18.64-3.29-5.65-8.48-10.06-14.69-12.34,10.79-3.96,18.5-14.34,18.5-26.48v-50.2c0-15.55-12.65-28.19-28.19-28.19h-208.3c-15.55,0-28.19,12.65-28.19,28.19v14.82c-4.93-8.21-13.93-13.72-24.19-13.72h-64.15l-3.41-32.8c-1.5-14.41-13.55-25.28-28.04-25.28h0c-.97,0-1.94,.05-2.91,.15l-57.86,6.02c-7.49,.78-14.23,4.43-18.98,10.28-4.75,5.85-6.93,13.19-6.15,20.68l2.18,20.95H28.19c-15.55,0-28.19,12.65-28.19,28.19v52.09c0,15.55,12.65,28.19,28.19,28.19H97.17l.79,7.62H28.19c-15.55,0-28.19,12.65-28.19,28.19v52.09c0,15.55,12.65,28.19,28.19,28.19H109.25l4.18,40.18c1.06,10.17,7.38,18.58,16.1,22.65H37.32c-20.58,0-37.32,16.74-37.32,37.32v91.08c0,20.58,16.74,37.32,37.32,37.32h237.66c20.58,0,37.32-16.74,37.32-37.32v-91.08c0-20.58-16.74-37.32-37.32-37.32h-106.74l33.99-3.54c15.46-1.61,26.74-15.5,25.13-30.96l-2.95-28.33h48.47c6.17,0,11.88-1.99,16.52-5.36v36.18c0,15.55,12.65,28.19,28.19,28.19h208.3c11.21,0,20.92-6.58,25.46-16.08,4.54,9.5,14.24,16.08,25.46,16.08h142.51c15.55,0,28.19-12.65,28.19-28.19v-50.2c0-15.55-12.65-28.19-28.19-28.19h-61.44v-1.15h83.25c15.55,0,28.19-12.65,28.19-28.19v-46.41c3.25,2.92,7.18,5.1,11.52,6.27-1.53,3.39-2.38,7.09-2.47,10.91-.85,35.63-14.37,71.62-25.69,91.61-4.08,7.21-4.8,15.81-1.95,23.59,2.84,7.77,8.92,13.88,16.69,16.75l45.29,16.77c3.15,1.17,6.45,1.76,9.8,1.76,10.4,0,19.92-5.69,24.83-14.85,5.39-10.06,10.85-22.32,15.83-35.93v37.26c0,15.55,12.65,28.19,28.19,28.19h58.16c15.55,0,28.19-12.65,28.19-28.19v-37.26c4.98,13.61,10.44,25.87,15.83,35.93,4.91,9.16,14.43,14.85,24.83,14.85,3.35,0,6.65-.59,9.8-1.76l45.29-16.77c7.76-2.87,13.84-8.98,16.69-16.75,2.84-7.78,2.13-16.38-1.95-23.6-6.22-10.98-13.1-26.8-18.18-44.73l58.96,22.01c3.16,1.18,6.48,1.78,9.87,1.78,10.27,0,19.73-5.58,24.68-14.58,12.01-21.8,24.01-52.05,33.27-83.45h22.67c-10.91,49.82-28.24,93.05-50.71,126.18-4.76,7.02-6.11,15.72-3.68,23.85,2.42,8.14,8.31,14.69,16.15,17.97l59.32,24.81c3.47,1.45,7.13,2.19,10.88,2.19,9.56,0,18.38-4.78,23.61-12.78,17.05-26.12,33.95-66,47.72-112.57v94.67c0,15.55,12.65,28.19,28.19,28.19h93.99c6.57,0,12.63-2.26,17.43-6.05,4.8,3.79,10.86,6.05,17.43,6.05h52.88c15.55,0,28.19-12.65,28.19-28.19V165.75c0-15.55-12.65-28.19-28.19-28.19h-181.73c-2.61,0-5.13,.36-7.53,1.02,3.48-21.32,5.91-42.23,7.13-61.98,.48-7.72-2.29-15.39-7.59-21.04-5.31-5.65-12.8-8.89-20.56-8.89h-198.4c-6.8,0-13.06,2.38-17.94,6.4V28.19c0-15.55-12.65-28.19-28.19-28.19h0Zm-2.26,125.44h2.26c2.27,0,4.47-.27,6.58-.78-2.7,8.43-5.69,16.69-8.85,24.59,0-.23,0-.46,0-.69v-23.13h0ZM212.34,176.77h52.87c15.55,0,28.19-12.65,28.19-28.19v-16.72c3.3,5.49,8.41,9.77,14.49,12-10.79,3.96-18.5,14.34-18.5,26.48v19.41c-4.65-3.37-10.36-5.36-16.52-5.36h-59.75l-.79-7.62h0Zm846.92-2.6c3.02-1.4,5.74-3.32,8.07-5.63-1.89,4.1-3.8,8.03-5.69,11.76-.55-2.13-1.35-4.18-2.38-6.12h0Zm-523.67,72.84c5.25-1.93,9.77-5.37,13.03-9.8v19.6c-3.26-4.43-7.78-7.87-13.03-9.8h0Zm-234.52,3.64v-7.28c2.08,1.51,4.37,2.74,6.83,3.64-2.45,.9-4.75,2.13-6.83,3.64h0Zm1130.96-6.51h19.59v1.94c-2.14-.52-4.37-.8-6.67-.8h-12.92v-1.15h0Zm91.54,115.77h-408.76c-20.58,0-37.32,16.74-37.32,37.32v91.08c0,20.58,16.74,37.32,37.32,37.32h408.76c20.58,0,37.32-16.74,37.32-37.32v-91.08c0-20.58-16.74-37.32-37.32-37.32h0Zm-491.88,4.21h-389.01c-19.08,0-35.02,14.3-37.09,33.27-8.67,79.49-42.3,166.43-73.76,227.25v-129.16c0-20.58-16.74-37.32-37.32-37.32h-107.08c-20.58,0-37.32,16.74-37.32,37.32v267.12H37.32c-20.58,0-37.32,16.74-37.32,37.32v102.89c0,20.58,16.74,37.32,37.32,37.32H494.51c20.58,0,37.32-16.74,37.32-37.32v-214.59c3.15,2.59,6.75,4.68,10.66,6.14l110.28,41.16c4.19,1.56,8.58,2.36,13.04,2.36,13.77,0,26.38-7.54,32.9-19.69,24.75-46.12,49.52-110.85,67.55-176.09h93.51c-21.46,113.01-58.71,211.66-108.4,286.68-6.17,9.32-7.85,20.79-4.61,31.48,3.24,10.68,11.01,19.27,21.3,23.57l109.93,45.98c4.59,1.92,9.43,2.89,14.4,2.89,12.84,0,24.61-6.47,31.5-17.3,33.01-51.93,65.87-131.1,92.51-222.93,27.81-95.84,46.47-198.32,52.53-288.55,.69-10.25-2.94-20.45-9.97-27.96-7.03-7.52-16.98-11.84-27.27-11.84h0Zm-756.01,188.04H38.03c-20.58,0-37.32,16.74-37.32,37.32v91.08c0,20.58,16.74,37.32,37.32,37.32h237.66c20.58,0,37.32-16.74,37.32-37.32v-91.08c0-20.58-16.74-37.32-37.32-37.32h0Zm1247.89,15h-408.76c-20.58,0-37.32,16.74-37.32,37.32v91.08c0,20.58,16.74,37.32,37.32,37.32h408.76c20.58,0,37.32-16.74,37.32-37.32v-91.08c0-20.58-16.74-37.32-37.32-37.32h0Zm0,207.26h-408.76c-20.58,0-37.32,16.74-37.32,37.32v91.08c0,20.58,16.74,37.32,37.32,37.32h408.76c20.58,0,37.32-16.74,37.32-37.32v-91.08c0-20.58-16.74-37.32-37.32-37.32h0Z"/></g></g></svg>