<?xml version="1.0" encoding="UTF-8"?><svg id="_レイヤー_2" xmlns="http://www.w3.org/2000/svg" viewBox="0 0 3251.85 868.4"><defs><style>.cls-1{fill:#fff;}</style></defs><g id="_レイヤー_2-2"><g><rect class="cls-1" x="36" y="36" width="3179.85" height="796.4"/><path d="M3251.85,868.4H0V0H3251.85V868.4ZM72,796.4H3179.85V72H72V796.4Z"/></g><path d="M528.74,195.99l-103.59-74.85H231.94l-103.59,74.85v128.92l94.13,68.01v296.44c0,36.86,45.6,64.65,106.06,64.65s106.07-27.79,106.07-64.65V392.92l94.13-68.01V195.99Zm-53.56,10.1l-62.82,45.39h-74.64l22.39-90.78h52.25l62.82,45.39Zm-230.44-45.39h74.64l-22.39,90.78h-52.25l-62.82-45.39,62.82-45.39Zm150.32,239.06l-133.03,41.86v-41.86h133.03Zm0,244.37l-133.03,41.86v-39.99l133.03-41.86v39.99Zm0-81.46l-133.03,41.86v-39.99l133.03-41.86v39.99Zm0-81.46l-133.03,41.86v-39.99l133.03-41.86v39.99Zm-66.51,233.24c-7.34,0-14.19-.54-20.5-1.48l87.02-27.38v3.76c0,8.62-25.9,25.09-66.51,25.09Zm83.81-354.25H244.73l-76.83-55.51v-59.93l64.04,46.27h193.21l64.04-46.27v59.93l-76.83,55.51Z"/><g><g><rect x="869.31" y="135.13" width="216.69" height="58.59" rx="4.19" ry="4.19"/><rect x="869.31" y="238.28" width="216.69" height="58.59" rx="4.19" ry="4.19"/><rect x="869.31" y="341.43" width="216.69" height="58.59" rx="4.19" ry="4.19"/><path d="M1302.93,341.43h-113.13v-49.15h134.95c2.32,0,4.19-1.88,4.19-4.19v-50.2c0-2.32-1.88-4.19-4.19-4.19h-57.02v-94.37c0-2.32-1.88-4.19-4.19-4.19h-52.88c-2.32,0-4.19,1.88-4.19,4.19v94.37h-73.74c-2.32,0-4.19,1.88-4.19,4.19h0v157.93c0,2.32,1.88,4.19,4.19,4.19h170.21c2.32,0,4.19-1.88,4.19-4.19v-50.2c0-2.32-1.88-4.19-4.19-4.19Z"/><path d="M697.81,406.45l57.85-6.02c2.3-.24,3.98-2.3,3.74-4.61l-5.7-54.82h75.09c2.32,0,4.19-1.88,4.19-4.19v-52.09c0-2.32-1.88-4.19-4.19-4.19h-81.38l-5.78-55.62h79.5c2.32,0,4.19-1.88,4.19-4.19v-52.09c0-2.32-1.88-4.19-4.19-4.19h-82.01c-2.15,0-3.95-1.62-4.17-3.76l-5.26-50.55c-.24-2.3-2.3-3.98-4.61-3.74l-57.85,6.02c-2.3,.24-3.98,2.3-3.74,4.61l4.93,47.43h-84.32c-2.32,0-4.19,1.88-4.19,4.19v52.09c0,2.32,1.88,4.19,4.19,4.19h90.61l5.78,55.62h-96.4c-2.32,0-4.19,1.88-4.19,4.19v52.09c0,2.32,1.88,4.19,4.19,4.19h102.69l6.42,61.7c.24,2.3,2.3,3.98,4.61,3.74Z"/></g><g><rect x="2612.87" y="136.56" width="491.72" height="132.95" rx="15.04" ry="15.04"/><rect x="2612.87" y="370.63" width="491.72" height="132.95" rx="15.04" ry="15.04"/><rect x="2612.87" y="604.7" width="491.72" height="132.95" rx="15.04" ry="15.04"/><rect x="1417.58" y="131.8" width="298.49" height="132.95" rx="15.04" ry="15.04"/><rect x="1418.38" y="353.69" width="298.49" height="132.95" rx="15.04" ry="15.04"/><path d="M1791.38,591.36h-358.75c-8.31,0-15.04,6.73-15.04,15.04v116.2c0,8.31,6.73,15.04,15.04,15.04h494.73c8.31,0,15.04-6.73,15.04-15.04V262.57c0-8.31-6.73-15.04-15.04-15.04h-120.93c-8.31,0-15.04,6.73-15.04,15.04v328.79Z"/><path d="M2387.79,141.32h-293.1c-7.68,0-14.11,5.78-14.95,13.41-11.25,103.08-57.67,215.46-96.63,285.7-4.46,8.04-.71,18.15,7.9,21.37l124.55,46.48c7.06,2.63,14.96-.36,18.53-7,26.45-49.28,57.45-127.87,79.35-213.16h158.74c-21.53,131.54-64.07,263.08-132.14,365.84-5.22,7.88-2,18.55,6.72,22.2l124.15,51.92c6.76,2.83,14.57,.38,18.5-5.81,71.67-112.76,145.32-351.69,159.64-564.93,.58-8.67-6.32-16.02-15.02-16.02h-65.92s-80.33,0-80.33,0Z"/></g><g><path d="M1311.53,569.25h-168.52c-2.32,0-4.19,1.88-4.19,4.19h0v157.93c0,2.32,1.88,4.19,4.19,4.19h93.99c2.32,0,4.19-1.88,4.19-4.19v-50.2c0-2.32-1.88-4.19-4.19-4.19h-36.92v-49.15h67.59v103.54c0,2.32,1.88,4.19,4.19,4.19h52.88c2.32,0,4.19-1.88,4.19-4.19v-157.93c0-2.32-1.88-4.19-4.19-4.19h-13.21Z"/><path d="M683.43,735.57h58.16c2.32,0,4.19-1.88,4.19-4.19v-170.92h93.7c2.32,0,4.19-1.88,4.19-4.19v-29.93c0-2.32-1.88-4.19-4.19-4.19h-61.61c-2.32,0-4.19-1.88-4.19-4.19v-13.77c0-2.32-1.88-4.19-4.19-4.19h-23.69v-55.53c0-2.32-1.88-4.19-4.19-4.19h-58.16c-2.32,0-4.19,1.88-4.19,4.19v55.53h-99.02c-2.32,0-4.19,1.88-4.19,4.19v52.09c0,2.32,1.88,4.19,4.19,4.19h99.02v170.92c0,2.32,1.88,4.19,4.19,4.19Z"/><path d="M970.59,543.05h69.94c-9.66,59.01-28.9,118.03-59.85,163.65-1.48,2.19-.58,5.18,1.86,6.2l59.32,24.81c1.87,.78,4.03,.12,5.13-1.57,32.23-49.37,65.71-157.59,71.66-253.35,.15-2.41-1.78-4.44-4.19-4.44h-31.64s-35.4,0-35.4,0h-131.36c-2.15,0-3.96,1.62-4.17,3.76-4.65,47.21-26.47,99.27-44.18,130.49-1.27,2.24-.22,5.08,2.19,5.98l59.53,22.22c1.95,.73,4.13-.07,5.13-1.89,11.88-21.56,26.08-57.15,36.02-95.87Z"/><rect x="787.67" y="431.69" width="35.91" height="77.44" rx="4.19" ry="4.19"/><rect x="838.22" y="431.69" width="35.91" height="77.44" rx="4.19" ry="4.19"/><path d="M647.1,590.91h-48.48c-2.27,0-4.13,1.8-4.19,4.07-.97,40.42-16.04,80.32-28.8,102.86-1.28,2.26-.25,5.12,2.18,6.02l45.29,16.77c1.96,.73,4.16-.09,5.15-1.93,15.17-28.28,32.01-78.78,33.04-123.47,.05-2.36-1.83-4.31-4.2-4.31Z"/><path d="M773.72,595.23c1.04,44.7,17.88,95.19,33.04,123.47,.99,1.84,3.19,2.66,5.15,1.93l45.29-16.77c2.43-.9,3.46-3.76,2.18-6.02-12.76-22.54-27.83-62.44-28.8-102.86-.05-2.27-1.92-4.07-4.19-4.07h-48.48c-2.36,0-4.25,1.95-4.2,4.31Z"/></g></g></g></svg>