<?xml version="1.0" encoding="UTF-8"?><svg id="_レイヤー_2" xmlns="http://www.w3.org/2000/svg" viewBox="0 0 2185.04 932.13"><defs><style>.cls-1{fill:#fff;}</style></defs><g id="_レイヤー_2-2"><path class="cls-1" d="M579.56,124.4L429.61,16.06H149.95L0,124.4v186.62l136.25,98.44v429.1c0,53.35,66,93.58,153.53,93.58s153.53-40.23,153.53-93.58V409.45l136.25-98.44V124.4Zm-77.53,14.62l-90.93,65.7h-108.04l32.41-131.41h75.63l90.93,65.7ZM168.46,73.31h108.04l-32.41,131.41h-75.63l-90.93-65.7,90.93-65.7Zm217.6,346.04l-192.56,60.59v-60.59h192.56Zm0,353.73l-192.56,60.59v-57.89l192.56-60.59v57.89Zm0-117.91l-192.56,60.59v-57.89l192.56-60.59v57.89Zm0-117.91l-192.56,60.59v-57.89l192.56-60.59v57.89Zm-96.28,337.62c-10.62,0-20.54-.79-29.68-2.14l125.96-39.63v5.45c0,12.47-37.49,36.32-96.28,36.32Zm121.32-512.78H168.46l-111.21-80.36v-86.74l92.69,66.97H429.61l92.69-66.97v86.74l-111.21,80.36Z"/><g><rect class="cls-1" x="942.11" y="38.99" width="216.69" height="58.59" rx="4.19" ry="4.19"/><rect class="cls-1" x="942.11" y="142.14" width="216.69" height="58.59" rx="4.19" ry="4.19"/><rect class="cls-1" x="942.11" y="245.29" width="216.69" height="58.59" rx="4.19" ry="4.19"/><path class="cls-1" d="M1375.73,245.29h-113.13v-49.15h134.95c2.32,0,4.19-1.88,4.19-4.19v-50.2c0-2.32-1.88-4.19-4.19-4.19h-57.02V43.19c0-2.32-1.88-4.19-4.19-4.19h-52.88c-2.32,0-4.19,1.88-4.19,4.19v94.37h-73.74c-2.32,0-4.19,1.88-4.19,4.19h0v157.93c0,2.32,1.88,4.19,4.19,4.19h170.21c2.32,0,4.19-1.88,4.19-4.19v-50.2c0-2.32-1.88-4.19-4.19-4.19Z"/><path class="cls-1" d="M770.61,310.31l57.85-6.02c2.3-.24,3.98-2.3,3.74-4.61l-5.7-54.82h75.09c2.32,0,4.19-1.88,4.19-4.19v-52.09c0-2.32-1.88-4.19-4.19-4.19h-81.38l-5.78-55.62h79.5c2.32,0,4.19-1.88,4.19-4.19v-52.09c0-2.32-1.88-4.19-4.19-4.19h-82.01c-2.15,0-3.95-1.62-4.17-3.76l-5.26-50.55c-.24-2.3-2.3-3.98-4.61-3.74l-57.85,6.02c-2.3,.24-3.98,2.3-3.74,4.61l4.93,47.43h-84.32c-2.32,0-4.19,1.88-4.19,4.19v52.09c0,2.32,1.88,4.19,4.19,4.19h90.61l5.78,55.62h-96.4c-2.32,0-4.19,1.88-4.19,4.19v52.09c0,2.32,1.88,4.19,4.19,4.19h102.69l6.42,61.7c.24,2.3,2.3,3.98,4.61,3.74Z"/></g><g><rect class="cls-1" x="1738.41" y="379.03" width="446.64" height="120.76" rx="13.66" ry="13.66"/><rect class="cls-1" x="1738.41" y="591.64" width="446.64" height="120.76" rx="13.66" ry="13.66"/><rect class="cls-1" x="1738.41" y="804.25" width="446.64" height="120.76" rx="13.66" ry="13.66"/><rect class="cls-1" x="652.71" y="374.7" width="271.12" height="120.76" rx="13.66" ry="13.66"/><rect class="cls-1" x="653.43" y="576.25" width="271.12" height="120.76" rx="13.66" ry="13.66"/><path class="cls-1" d="M992.23,792.13h-325.86c-7.55,0-13.66,6.12-13.66,13.66v105.55c0,7.55,6.12,13.66,13.66,13.66h449.37c7.55,0,13.66-6.12,13.66-13.66V493.49c0-7.55-6.12-13.66-13.66-13.66h-109.85c-7.55,0-13.66,6.12-13.66,13.66v298.64Z"/><path class="cls-1" d="M1533.96,383.35h-266.22c-6.97,0-12.82,5.25-13.57,12.18-10.22,93.63-52.38,195.71-87.77,259.5-4.05,7.3-.64,16.49,7.18,19.41l113.13,42.22c6.41,2.39,13.59-.33,16.83-6.36,24.02-44.76,52.18-116.15,72.07-193.62h144.18c-19.55,119.48-58.2,238.96-120.03,332.29-4.74,7.16-1.82,16.85,6.1,20.16l112.77,47.16c6.14,2.57,13.24,.34,16.81-5.27,65.1-102.42,131.99-319.44,145.01-513.13,.53-7.88-5.74-14.55-13.64-14.55h-59.87s-72.96,0-72.96,0Z"/></g><g><path class="cls-1" d="M2167.64,137.56h-168.52c-2.32,0-4.19,1.88-4.19,4.19h0v157.93c0,2.32,1.88,4.19,4.19,4.19h93.99c2.32,0,4.19-1.88,4.19-4.19v-50.2c0-2.32-1.88-4.19-4.19-4.19h-36.92v-49.15h67.59v103.54c0,2.32,1.88,4.19,4.19,4.19h52.88c2.32,0,4.19-1.88,4.19-4.19V141.75c0-2.32-1.88-4.19-4.19-4.19h-13.21Z"/><path class="cls-1" d="M1539.53,303.88h58.16c2.32,0,4.19-1.88,4.19-4.19V128.77h93.7c2.32,0,4.19-1.88,4.19-4.19v-29.93c0-2.32-1.88-4.19-4.19-4.19h-61.61c-2.32,0-4.19-1.88-4.19-4.19v-13.77c0-2.32-1.88-4.19-4.19-4.19h-23.69V12.76c0-2.32-1.88-4.19-4.19-4.19h-58.16c-2.32,0-4.19,1.88-4.19,4.19v55.53h-99.02c-2.32,0-4.19,1.88-4.19,4.19v52.09c0,2.32,1.88,4.19,4.19,4.19h99.02v170.92c0,2.32,1.88,4.19,4.19,4.19Z"/><path class="cls-1" d="M1826.7,111.36h69.94c-9.66,59.01-28.9,118.03-59.85,163.65-1.48,2.19-.58,5.18,1.86,6.2l59.32,24.81c1.87,.78,4.03,.12,5.13-1.57,32.23-49.37,65.71-157.59,71.66-253.35,.15-2.41-1.78-4.44-4.19-4.44h-31.64s-35.4,0-35.4,0h-131.36c-2.15,0-3.96,1.62-4.17,3.76-4.65,47.21-26.47,99.27-44.18,130.49-1.27,2.24-.22,5.08,2.19,5.98l59.53,22.22c1.95,.73,4.13-.07,5.13-1.89,11.88-21.56,26.08-57.15,36.02-95.87Z"/><rect class="cls-1" x="1643.78" width="35.91" height="77.44" rx="4.19" ry="4.19"/><rect class="cls-1" x="1694.32" width="35.91" height="77.44" rx="4.19" ry="4.19"/><path class="cls-1" d="M1503.2,159.22h-48.48c-2.27,0-4.13,1.8-4.19,4.07-.97,40.42-16.04,80.32-28.8,102.86-1.28,2.26-.25,5.12,2.18,6.02l45.29,16.77c1.96,.73,4.16-.09,5.15-1.93,15.17-28.28,32.01-78.78,33.04-123.47,.05-2.36-1.83-4.31-4.2-4.31Z"/><path class="cls-1" d="M1629.83,163.53c1.04,44.7,17.88,95.19,33.04,123.47,.99,1.84,3.19,2.66,5.15,1.93l45.29-16.77c2.43-.9,3.46-3.76,2.18-6.02-12.76-22.54-27.83-62.44-28.8-102.86-.05-2.27-1.92-4.07-4.19-4.07h-48.48c-2.36,0-4.25,1.95-4.2,4.31Z"/></g></g></svg>