<?xml version="1.0" encoding="UTF-8"?><svg id="_レイヤー_2" xmlns="http://www.w3.org/2000/svg" viewBox="0 0 1532.34 1085.61"><defs><style>.cls-1{fill:#fff;}</style></defs><g id="_レイヤー_2-2"><g><g><rect class="cls-1" x="289.41" y="38.99" width="216.69" height="58.59" rx="4.19" ry="4.19"/><rect class="cls-1" x="289.41" y="142.14" width="216.69" height="58.59" rx="4.19" ry="4.19"/><rect class="cls-1" x="289.41" y="245.29" width="216.69" height="58.59" rx="4.19" ry="4.19"/><path class="cls-1" d="M723.02,245.29h-113.13v-49.15h134.95c2.32,0,4.19-1.88,4.19-4.19v-50.2c0-2.32-1.88-4.19-4.19-4.19h-57.02V43.19c0-2.32-1.88-4.19-4.19-4.19h-52.88c-2.32,0-4.19,1.88-4.19,4.19v94.37h-73.74c-2.32,0-4.19,1.88-4.19,4.19h0v157.93c0,2.32,1.88,4.19,4.19,4.19h170.21c2.32,0,4.19-1.88,4.19-4.19v-50.2c0-2.32-1.88-4.19-4.19-4.19Z"/><path class="cls-1" d="M117.91,310.31l57.85-6.02c2.3-.24,3.98-2.3,3.74-4.61l-5.7-54.82h75.09c2.32,0,4.19-1.88,4.19-4.19v-52.09c0-2.32-1.88-4.19-4.19-4.19h-81.38l-5.78-55.62h79.5c2.32,0,4.19-1.88,4.19-4.19v-52.09c0-2.32-1.88-4.19-4.19-4.19h-82.01c-2.15,0-3.95-1.62-4.17-3.76l-5.26-50.55c-.24-2.3-2.3-3.98-4.61-3.74l-57.85,6.02c-2.3,.24-3.98,2.3-3.74,4.61l4.93,47.43H4.19c-2.32,0-4.19,1.88-4.19,4.19v52.09c0,2.32,1.88,4.19,4.19,4.19H94.81l5.78,55.62H4.19c-2.32,0-4.19,1.88-4.19,4.19v52.09c0,2.32,1.88,4.19,4.19,4.19H106.88l6.42,61.7c.24,2.3,2.3,3.98,4.61,3.74Z"/></g><g><rect class="cls-1" x="1085.7" y="379.03" width="446.64" height="120.76" rx="13.66" ry="13.66"/><rect class="cls-1" x="1085.7" y="591.64" width="446.64" height="120.76" rx="13.66" ry="13.66"/><rect class="cls-1" x="1085.7" y="804.25" width="446.64" height="120.76" rx="13.66" ry="13.66"/><rect class="cls-1" y="374.7" width="271.12" height="120.76" rx="13.66" ry="13.66"/><rect class="cls-1" x=".73" y="576.25" width="271.12" height="120.76" rx="13.66" ry="13.66"/><path class="cls-1" d="M339.52,792.13H13.66c-7.55,0-13.66,6.12-13.66,13.66v105.55c0,7.55,6.12,13.66,13.66,13.66H463.03c7.55,0,13.66-6.12,13.66-13.66V493.49c0-7.55-6.12-13.66-13.66-13.66h-109.85c-7.55,0-13.66,6.12-13.66,13.66v298.64Z"/><path class="cls-1" d="M881.25,383.35h-266.22c-6.97,0-12.82,5.25-13.57,12.18-10.22,93.63-52.38,195.71-87.77,259.5-4.05,7.3-.64,16.49,7.18,19.41l113.13,42.22c6.41,2.39,13.59-.33,16.83-6.36,24.02-44.76,52.18-116.15,72.07-193.62h144.18c-19.55,119.48-58.2,238.96-120.03,332.29-4.74,7.16-1.82,16.85,6.1,20.16l112.77,47.16c6.14,2.57,13.24,.34,16.81-5.27,65.1-102.42,131.99-319.44,145.01-513.13,.53-7.88-5.74-14.55-13.64-14.55h-59.87s-72.96,0-72.96,0Z"/></g><g><path class="cls-1" d="M1514.93,137.56h-168.52c-2.32,0-4.19,1.88-4.19,4.19h0v157.93c0,2.32,1.88,4.19,4.19,4.19h93.99c2.32,0,4.19-1.88,4.19-4.19v-50.2c0-2.32-1.88-4.19-4.19-4.19h-36.92v-49.15h67.59v103.54c0,2.32,1.88,4.19,4.19,4.19h52.88c2.32,0,4.19-1.88,4.19-4.19V141.75c0-2.32-1.88-4.19-4.19-4.19h-13.21Z"/><path class="cls-1" d="M886.82,303.88h58.16c2.32,0,4.19-1.88,4.19-4.19V128.77h93.7c2.32,0,4.19-1.88,4.19-4.19v-29.93c0-2.32-1.88-4.19-4.19-4.19h-61.61c-2.32,0-4.19-1.88-4.19-4.19v-13.77c0-2.32-1.88-4.19-4.19-4.19h-23.69V12.76c0-2.32-1.88-4.19-4.19-4.19h-58.16c-2.32,0-4.19,1.88-4.19,4.19v55.53h-99.02c-2.32,0-4.19,1.88-4.19,4.19v52.09c0,2.32,1.88,4.19,4.19,4.19h99.02v170.92c0,2.32,1.88,4.19,4.19,4.19Z"/><path class="cls-1" d="M1173.99,111.36h69.94c-9.66,59.01-28.9,118.03-59.85,163.65-1.48,2.19-.58,5.18,1.86,6.2l59.32,24.81c1.87,.78,4.03,.12,5.13-1.57,32.23-49.37,65.71-157.59,71.66-253.35,.15-2.41-1.78-4.44-4.19-4.44h-31.64s-35.4,0-35.4,0h-131.36c-2.15,0-3.96,1.62-4.17,3.76-4.65,47.21-26.47,99.27-44.18,130.49-1.27,2.24-.22,5.08,2.19,5.98l59.53,22.22c1.95,.73,4.13-.07,5.13-1.89,11.88-21.56,26.08-57.15,36.02-95.87Z"/><rect class="cls-1" x="991.07" width="35.91" height="77.44" rx="4.19" ry="4.19"/><rect class="cls-1" x="1041.62" width="35.91" height="77.44" rx="4.19" ry="4.19"/><path class="cls-1" d="M850.49,159.22h-48.48c-2.27,0-4.13,1.8-4.19,4.07-.97,40.42-16.04,80.32-28.8,102.86-1.28,2.26-.25,5.12,2.18,6.02l45.29,16.77c1.96,.73,4.16-.09,5.15-1.93,15.17-28.28,32.01-78.78,33.04-123.47,.05-2.36-1.83-4.31-4.2-4.31Z"/><path class="cls-1" d="M977.12,163.53c1.04,44.7,17.88,95.19,33.04,123.47,.99,1.84,3.19,2.66,5.15,1.93l45.29-16.77c2.43-.9,3.46-3.76,2.18-6.02-12.76-22.54-27.83-62.44-28.8-102.86-.05-2.27-1.92-4.07-4.19-4.07h-48.48c-2.36,0-4.25,1.95-4.2,4.31Z"/></g></g><g><path class="cls-1" d="M0,1011.08H16.01v27.1h31.1v-27.1h16.01v72.68h-16.01v-31.41H16.01v31.41H0v-72.68Z"/><path class="cls-1" d="M77.7,1011.08h16.01v72.68h-16.01v-72.68Z"/><path class="cls-1" d="M108.29,1011.08h28.13c3.69,0,7.2,.36,10.52,1.08,3.32,.72,6.23,1.92,8.72,3.59,2.5,1.68,4.48,3.94,5.95,6.77,1.47,2.84,2.21,6.38,2.21,10.62,0,5.13-1.33,9.5-4,13.09-2.67,3.59-6.57,5.87-11.7,6.83l18.48,30.69h-19.2l-15.19-29.05h-7.9v29.05h-16.01v-72.68Zm16.01,30.08h9.44c1.44,0,2.96-.05,4.57-.15,1.61-.1,3.06-.41,4.36-.92,1.3-.51,2.38-1.32,3.23-2.41,.86-1.09,1.28-2.63,1.28-4.62,0-1.85-.38-3.32-1.13-4.41-.75-1.09-1.71-1.93-2.87-2.51-1.16-.58-2.5-.98-4-1.18-1.51-.21-2.98-.31-4.41-.31h-10.47v16.53Z"/><path class="cls-1" d="M170.91,1047.42c0-5.82,.98-11.09,2.93-15.81,1.95-4.72,4.67-8.74,8.16-12.06,3.49-3.32,7.63-5.87,12.42-7.65,4.79-1.78,10.02-2.67,15.71-2.67s10.91,.89,15.71,2.67c4.79,1.78,8.93,4.33,12.42,7.65,3.49,3.32,6.21,7.34,8.16,12.06,1.95,4.72,2.93,9.99,2.93,15.81s-.98,11.09-2.93,15.81c-1.95,4.72-4.67,8.74-8.16,12.06-3.49,3.32-7.63,5.87-12.42,7.65-4.79,1.78-10.03,2.67-15.71,2.67s-10.92-.89-15.71-2.67c-4.79-1.78-8.93-4.33-12.42-7.65-3.49-3.32-6.21-7.34-8.16-12.06-1.95-4.72-2.93-9.99-2.93-15.81Zm16.63,0c0,3.42,.53,6.55,1.59,9.39,1.06,2.84,2.58,5.3,4.57,7.39,1.98,2.09,4.36,3.71,7.14,4.88,2.77,1.16,5.87,1.75,9.29,1.75s6.52-.58,9.29-1.75c2.77-1.16,5.15-2.79,7.13-4.88,1.98-2.09,3.51-4.55,4.57-7.39,1.06-2.84,1.59-5.97,1.59-9.39s-.53-6.47-1.59-9.34c-1.06-2.87-2.58-5.35-4.57-7.44-1.99-2.09-4.36-3.71-7.13-4.88-2.77-1.16-5.87-1.75-9.29-1.75s-6.52,.58-9.29,1.75c-2.77,1.16-5.15,2.79-7.14,4.88-1.99,2.09-3.51,4.57-4.57,7.44-1.06,2.87-1.59,5.99-1.59,9.34Z"/><path class="cls-1" d="M260.21,1011.08h24.22l16.73,47.42h.21l16.83-47.42h24.12v72.68h-16.01v-55.74h-.21l-19.09,55.74h-12.21l-18.37-55.74h-.21v55.74h-16.01v-72.68Z"/><path class="cls-1" d="M381.03,1011.08h13.24l31.62,72.68h-18.07l-6.26-15.4h-28.23l-6.06,15.4h-17.66l31.41-72.68Zm6.16,21.15l-8.83,22.58h17.76l-8.93-22.58Z"/><path class="cls-1" d="M469.1,1028.84c-1.3-1.64-3.06-2.86-5.29-3.64-2.22-.79-4.33-1.18-6.31-1.18-1.16,0-2.36,.14-3.59,.41-1.23,.27-2.4,.7-3.49,1.28-1.09,.58-1.99,1.35-2.67,2.31-.68,.96-1.03,2.12-1.03,3.49,0,2.19,.82,3.87,2.46,5.03,1.64,1.16,3.71,2.16,6.21,2.98,2.5,.82,5.18,1.64,8.06,2.46s5.56,1.99,8.06,3.49c2.5,1.51,4.57,3.53,6.21,6.06,1.64,2.53,2.46,5.92,2.46,10.16s-.75,7.56-2.26,10.57c-1.51,3.01-3.54,5.51-6.11,7.49-2.57,1.99-5.54,3.46-8.93,4.41s-6.96,1.44-10.73,1.44c-4.72,0-9.1-.72-13.14-2.16-4.04-1.44-7.8-3.76-11.29-6.98l11.39-12.52c1.64,2.19,3.71,3.88,6.21,5.08,2.5,1.2,5.08,1.8,7.75,1.8,1.3,0,2.62-.15,3.95-.46,1.33-.31,2.53-.77,3.59-1.39,1.06-.62,1.91-1.4,2.57-2.36,.65-.96,.98-2.09,.98-3.39,0-2.19-.84-3.92-2.51-5.18-1.68-1.27-3.78-2.34-6.31-3.23-2.53-.89-5.27-1.78-8.21-2.67-2.94-.89-5.68-2.09-8.21-3.59-2.53-1.5-4.64-3.49-6.31-5.95-1.68-2.46-2.51-5.71-2.51-9.75s.77-7.32,2.31-10.27c1.54-2.94,3.59-5.41,6.16-7.39,2.57-1.98,5.53-3.47,8.88-4.47,3.35-.99,6.81-1.49,10.37-1.49,4.11,0,8.07,.58,11.91,1.75,3.83,1.16,7.29,3.11,10.37,5.85l-10.98,12.01Z"/><path class="cls-1" d="M516.01,1011.08h13.24l31.62,72.68h-18.07l-6.26-15.4h-28.23l-6.06,15.4h-17.66l31.41-72.68Zm6.16,21.15l-8.83,22.58h17.76l-8.93-22.58Z"/><path class="cls-1" d="M634.47,1028.84c-1.3-1.64-3.06-2.86-5.29-3.64-2.22-.79-4.33-1.18-6.31-1.18-1.16,0-2.36,.14-3.59,.41-1.23,.27-2.4,.7-3.49,1.28-1.09,.58-1.99,1.35-2.67,2.31-.68,.96-1.03,2.12-1.03,3.49,0,2.19,.82,3.87,2.46,5.03,1.64,1.16,3.71,2.16,6.21,2.98,2.5,.82,5.18,1.64,8.06,2.46s5.56,1.99,8.06,3.49c2.5,1.51,4.57,3.53,6.21,6.06,1.64,2.53,2.46,5.92,2.46,10.16s-.75,7.56-2.26,10.57c-1.51,3.01-3.54,5.51-6.11,7.49-2.57,1.99-5.54,3.46-8.93,4.41s-6.96,1.44-10.73,1.44c-4.72,0-9.1-.72-13.14-2.16-4.04-1.44-7.8-3.76-11.29-6.98l11.39-12.52c1.64,2.19,3.71,3.88,6.21,5.08,2.5,1.2,5.08,1.8,7.75,1.8,1.3,0,2.62-.15,3.95-.46,1.33-.31,2.53-.77,3.59-1.39,1.06-.62,1.91-1.4,2.57-2.36,.65-.96,.98-2.09,.98-3.39,0-2.19-.84-3.92-2.51-5.18-1.68-1.27-3.78-2.34-6.31-3.23-2.53-.89-5.27-1.78-8.21-2.67-2.94-.89-5.68-2.09-8.21-3.59-2.53-1.5-4.64-3.49-6.31-5.95-1.68-2.46-2.51-5.71-2.51-9.75s.77-7.32,2.31-10.27c1.54-2.94,3.59-5.41,6.16-7.39,2.57-1.98,5.53-3.47,8.88-4.47,3.35-.99,6.81-1.49,10.37-1.49,4.11,0,8.07,.58,11.91,1.75,3.83,1.16,7.29,3.11,10.37,5.85l-10.98,12.01Z"/><path class="cls-1" d="M718.74,1055.74c0,4.31-.65,8.28-1.95,11.91-1.3,3.63-3.23,6.77-5.8,9.44-2.57,2.67-5.77,4.76-9.6,6.26-3.83,1.5-8.25,2.26-13.24,2.26s-9.51-.75-13.34-2.26c-3.83-1.5-7.03-3.59-9.6-6.26-2.57-2.67-4.5-5.82-5.8-9.44-1.3-3.63-1.95-7.6-1.95-11.91v-44.65h16.01v44.04c0,2.26,.36,4.35,1.08,6.26,.72,1.92,1.73,3.58,3.03,4.98,1.3,1.4,2.86,2.5,4.67,3.28,1.81,.79,3.78,1.18,5.9,1.18s4.07-.39,5.85-1.18c1.78-.79,3.32-1.88,4.62-3.28,1.3-1.4,2.31-3.06,3.03-4.98,.72-1.92,1.08-4,1.08-6.26v-44.04h16.01v44.65Z"/><path class="cls-1" d="M729.73,1068.98l36.85-43.73h-35.52v-14.17h54.92v14.17l-36.13,43.73h37.36v14.78h-57.48v-14.78Z"/><path class="cls-1" d="M859.48,1055.74c0,4.31-.65,8.28-1.95,11.91-1.3,3.63-3.23,6.77-5.8,9.44-2.57,2.67-5.77,4.76-9.6,6.26-3.83,1.5-8.25,2.26-13.24,2.26s-9.51-.75-13.34-2.26c-3.83-1.5-7.03-3.59-9.6-6.26-2.57-2.67-4.5-5.82-5.8-9.44-1.3-3.63-1.95-7.6-1.95-11.91v-44.65h16.01v44.04c0,2.26,.36,4.35,1.08,6.26,.72,1.92,1.73,3.58,3.03,4.98,1.3,1.4,2.86,2.5,4.67,3.28,1.81,.79,3.78,1.18,5.9,1.18s4.07-.39,5.85-1.18c1.78-.79,3.32-1.88,4.62-3.28,1.3-1.4,2.31-3.06,3.03-4.98,.72-1.92,1.08-4,1.08-6.26v-44.04h16.01v44.65Z"/><path class="cls-1" d="M874.87,1011.08h16.01v30.18l28.23-30.18h20.94l-32.33,33.77,35.11,38.9h-22.38l-29.56-34.49v34.49h-16.01v-72.68Z"/><path class="cls-1" d="M948.16,1011.08h16.01v72.68h-16.01v-72.68Z"/><path class="cls-1" d="M988.5,1040.03h-13.14l7.6-28.95h14.78l-9.24,28.95Z"/><path class="cls-1" d="M1045.06,1028.84c-1.3-1.64-3.06-2.86-5.29-3.64-2.22-.79-4.33-1.18-6.31-1.18-1.16,0-2.36,.14-3.59,.41-1.23,.27-2.4,.7-3.49,1.28-1.09,.58-1.99,1.35-2.67,2.31-.68,.96-1.03,2.12-1.03,3.49,0,2.19,.82,3.87,2.46,5.03,1.64,1.16,3.71,2.16,6.21,2.98,2.5,.82,5.18,1.64,8.06,2.46s5.56,1.99,8.06,3.49c2.5,1.51,4.57,3.53,6.21,6.06,1.64,2.53,2.46,5.92,2.46,10.16s-.75,7.56-2.26,10.57c-1.51,3.01-3.54,5.51-6.11,7.49-2.57,1.99-5.54,3.46-8.93,4.41s-6.96,1.44-10.73,1.44c-4.72,0-9.1-.72-13.14-2.16-4.04-1.44-7.8-3.76-11.29-6.98l11.39-12.52c1.64,2.19,3.71,3.88,6.21,5.08,2.5,1.2,5.08,1.8,7.75,1.8,1.3,0,2.62-.15,3.95-.46,1.33-.31,2.53-.77,3.59-1.39,1.06-.62,1.91-1.4,2.57-2.36,.65-.96,.98-2.09,.98-3.39,0-2.19-.84-3.92-2.51-5.18-1.68-1.27-3.78-2.34-6.31-3.23-2.53-.89-5.27-1.78-8.21-2.67-2.94-.89-5.68-2.09-8.21-3.59-2.53-1.5-4.64-3.49-6.31-5.95-1.68-2.46-2.51-5.71-2.51-9.75s.77-7.32,2.31-10.27c1.54-2.94,3.59-5.41,6.16-7.39,2.57-1.98,5.53-3.47,8.88-4.47,3.35-.99,6.81-1.49,10.37-1.49,4.11,0,8.07,.58,11.91,1.75,3.83,1.16,7.29,3.11,10.37,5.85l-10.98,12.01Z"/><path class="cls-1" d="M1090.84,1011.08h17.45l11.6,46.6h.21l15.19-46.6h14.88l15.09,47.83h.21l12.22-47.83h16.22l-21.25,72.68h-14.27l-16.01-50.3h-.21l-16.01,50.3h-13.76l-21.56-72.68Z"/><path class="cls-1" d="M1201.7,1011.08h49.38v14.78h-33.36v13.55h31.51v14.78h-31.51v14.78h35.21v14.78h-51.22v-72.68Z"/><path class="cls-1" d="M1265.76,1011.08h27.1c3.15,0,6.31,.22,9.5,.67,3.18,.45,6.04,1.33,8.57,2.67,2.53,1.33,4.58,3.2,6.16,5.59,1.57,2.4,2.36,5.58,2.36,9.55s-1.15,7.51-3.44,10.21c-2.29,2.7-5.32,4.64-9.08,5.8v.21c2.39,.34,4.57,1.01,6.52,2,1.95,.99,3.63,2.26,5.03,3.8,1.4,1.54,2.48,3.34,3.23,5.39,.75,2.05,1.13,4.24,1.13,6.57,0,3.83-.82,7.03-2.46,9.6-1.64,2.57-3.76,4.64-6.36,6.21-2.6,1.58-5.53,2.7-8.78,3.39-3.25,.68-6.48,1.03-9.7,1.03h-29.77v-72.68Zm16.01,29.05h11.6c1.23,0,2.45-.14,3.64-.41,1.2-.27,2.27-.72,3.23-1.33,.96-.62,1.73-1.44,2.31-2.46,.58-1.03,.87-2.26,.87-3.7s-.33-2.75-.98-3.75c-.65-.99-1.49-1.76-2.52-2.31-1.03-.55-2.19-.94-3.49-1.18-1.3-.24-2.57-.36-3.8-.36h-10.88v15.5Zm0,30.08h14.37c1.23,0,2.48-.14,3.75-.41,1.27-.27,2.41-.75,3.44-1.44,1.03-.68,1.86-1.57,2.51-2.67,.65-1.09,.98-2.43,.98-4,0-1.71-.43-3.1-1.28-4.16-.86-1.06-1.93-1.86-3.23-2.41-1.3-.55-2.7-.92-4.21-1.13-1.51-.21-2.91-.31-4.21-.31h-12.11v16.53Z"/><path class="cls-1" d="M1368.2,1028.84c-1.3-1.64-3.06-2.86-5.29-3.64-2.22-.79-4.33-1.18-6.31-1.18-1.16,0-2.36,.14-3.59,.41-1.23,.27-2.4,.7-3.49,1.28-1.09,.58-1.99,1.35-2.67,2.31-.68,.96-1.03,2.12-1.03,3.49,0,2.19,.82,3.87,2.46,5.03,1.64,1.16,3.71,2.16,6.21,2.98,2.5,.82,5.18,1.64,8.06,2.46s5.56,1.99,8.06,3.49c2.5,1.51,4.57,3.53,6.21,6.06,1.64,2.53,2.46,5.92,2.46,10.16s-.75,7.56-2.26,10.57c-1.51,3.01-3.54,5.51-6.11,7.49-2.57,1.99-5.54,3.46-8.93,4.41s-6.96,1.44-10.73,1.44c-4.72,0-9.1-.72-13.14-2.16-4.04-1.44-7.8-3.76-11.29-6.98l11.39-12.52c1.64,2.19,3.71,3.88,6.21,5.08,2.5,1.2,5.08,1.8,7.75,1.8,1.3,0,2.62-.15,3.95-.46,1.33-.31,2.53-.77,3.59-1.39,1.06-.62,1.91-1.4,2.57-2.36,.65-.96,.98-2.09,.98-3.39,0-2.19-.84-3.92-2.51-5.18-1.68-1.27-3.78-2.34-6.31-3.23-2.53-.89-5.27-1.78-8.21-2.67-2.94-.89-5.68-2.09-8.21-3.59-2.53-1.5-4.64-3.49-6.31-5.95-1.68-2.46-2.51-5.71-2.51-9.75s.77-7.32,2.31-10.27c1.54-2.94,3.59-5.41,6.16-7.39,2.57-1.98,5.53-3.47,8.88-4.47,3.35-.99,6.81-1.49,10.37-1.49,4.11,0,8.07,.58,11.91,1.75,3.83,1.16,7.29,3.11,10.37,5.85l-10.98,12.01Z"/><path class="cls-1" d="M1390.99,1011.08h16.01v72.68h-16.01v-72.68Z"/><path class="cls-1" d="M1435.64,1025.25h-20.74v-14.17h57.48v14.17h-20.74v58.51h-16.01v-58.51Z"/><path class="cls-1" d="M1481.11,1011.08h49.38v14.78h-33.36v13.55h31.51v14.78h-31.51v14.78h35.21v14.78h-51.22v-72.68Z"/></g></g></svg>