<?xml version="1.0" encoding="UTF-8"?><svg id="_レイヤー_2" xmlns="http://www.w3.org/2000/svg" viewBox="0 0 1512.9 892.15"><defs><style>.cls-1{fill:#fff;}</style></defs><g id="_レイヤー_2-2"><g><rect class="cls-1" x="289.41" y="38.99" width="216.69" height="58.59" rx="4.19" ry="4.19"/><rect class="cls-1" x="289.41" y="142.14" width="216.69" height="58.59" rx="4.19" ry="4.19"/><rect class="cls-1" x="289.41" y="245.29" width="216.69" height="58.59" rx="4.19" ry="4.19"/><rect class="cls-1" x="1077.5" y="359.91" width="435.39" height="117.72" rx="13.32" ry="13.32"/><rect class="cls-1" x="1077.5" y="567.17" width="435.39" height="117.72" rx="13.32" ry="13.32"/><rect class="cls-1" x="1077.5" y="774.43" width="435.39" height="117.72" rx="13.32" ry="13.32"/><rect class="cls-1" y="355.7" width="264.3" height="117.72" rx="13.32" ry="13.32"/><rect class="cls-1" x=".71" y="552.17" width="264.3" height="117.72" rx="13.32" ry="13.32"/><path class="cls-1" d="M695.33,245.29h-85.44v-49.15h107.25c2.32,0,4.19-1.88,4.19-4.19v-50.2c0-2.32-1.88-4.19-4.19-4.19h-48.94V43.19c0-2.32-1.88-4.19-4.19-4.19h-52.88c-2.32,0-4.19,1.88-4.19,4.19v94.37h-54.12c-2.32,0-4.19,1.88-4.19,4.19h0v157.93c0,2.32,1.88,4.19,4.19,4.19h142.51c2.32,0,4.19-1.88,4.19-4.19v-50.2c0-2.32-1.88-4.19-4.19-4.19Z"/><path class="cls-1" d="M1495.49,137.56h-168.52c-2.32,0-4.19,1.88-4.19,4.19h0v157.93c0,2.32,1.88,4.19,4.19,4.19h93.99c2.32,0,4.19-1.88,4.19-4.19v-50.2c0-2.32-1.88-4.19-4.19-4.19h-36.92v-49.15h67.59v103.54c0,2.32,1.88,4.19,4.19,4.19h52.88c2.32,0,4.19-1.88,4.19-4.19V141.75c0-2.32-1.88-4.19-4.19-4.19h-13.21Z"/><path class="cls-1" d="M117.91,310.31l57.85-6.02c2.3-.24,3.98-2.3,3.74-4.61l-5.7-54.82h75.09c2.32,0,4.19-1.88,4.19-4.19v-52.09c0-2.32-1.88-4.19-4.19-4.19h-81.38l-5.78-55.62h79.5c2.32,0,4.19-1.88,4.19-4.19v-52.09c0-2.32-1.88-4.19-4.19-4.19h-82.01c-2.15,0-3.95-1.62-4.17-3.76l-5.26-50.55c-.24-2.3-2.3-3.98-4.61-3.74l-57.85,6.02c-2.3,.24-3.98,2.3-3.74,4.61l4.93,47.43H4.19c-2.32,0-4.19,1.88-4.19,4.19v52.09c0,2.32,1.88,4.19,4.19,4.19H94.81l5.78,55.62H4.19c-2.32,0-4.19,1.88-4.19,4.19v52.09c0,2.32,1.88,4.19,4.19,4.19H106.88l6.42,61.7c.24,2.3,2.3,3.98,4.61,3.74Z"/><path class="cls-1" d="M867.39,303.88h58.16c2.32,0,4.19-1.88,4.19-4.19V128.77h93.7c2.32,0,4.19-1.88,4.19-4.19v-29.93c0-2.32-1.88-4.19-4.19-4.19h-61.61c-2.32,0-4.19-1.88-4.19-4.19v-13.77c0-2.32-1.88-4.19-4.19-4.19h-23.69V12.76c0-2.32-1.88-4.19-4.19-4.19h-58.16c-2.32,0-4.19,1.88-4.19,4.19v55.53h-99.02c-2.32,0-4.19,1.88-4.19,4.19v52.09c0,2.32,1.88,4.19,4.19,4.19h99.02v170.92c0,2.32,1.88,4.19,4.19,4.19Z"/><path class="cls-1" d="M350.11,762.61H13.32c-7.36,0-13.32,5.96-13.32,13.32v102.89c0,7.36,5.96,13.32,13.32,13.32H470.51c7.36,0,13.32-5.96,13.32-13.32V471.49c0-7.36-5.96-13.32-13.32-13.32h-107.08c-7.36,0-13.32,5.96-13.32,13.32v291.12Z"/><path class="cls-1" d="M1154.55,111.36h69.94c-9.66,59.01-28.9,118.03-59.85,163.65-1.48,2.19-.58,5.18,1.86,6.2l59.32,24.81c1.87,.78,4.03,.12,5.13-1.57,32.23-49.37,65.71-157.59,71.66-253.35,.15-2.41-1.78-4.44-4.19-4.44h-31.64s-35.4,0-35.4,0h-131.36c-2.15,0-3.96,1.62-4.17,3.76-4.65,47.21-26.47,99.27-44.18,130.49-1.27,2.24-.22,5.08,2.19,5.98l59.53,22.22c1.95,.73,4.13-.07,5.13-1.89,11.88-21.56,26.08-57.15,36.02-95.87Z"/><path class="cls-1" d="M878.21,364.13h-259.52c-6.8,0-12.5,5.11-13.23,11.87-9.96,91.27-51.06,190.78-85.56,252.97-3.95,7.12-.63,16.07,7,18.92l110.28,41.16c6.25,2.33,13.25-.32,16.4-6.2,23.42-43.64,50.87-113.22,70.26-188.74h140.55c-19.06,116.47-56.73,232.95-117,323.93-4.62,6.98-1.77,16.43,5.95,19.66l109.93,45.98c5.99,2.5,12.9,.34,16.38-5.14,63.46-99.84,128.67-311.4,141.36-500.22,.52-7.68-5.6-14.19-13.3-14.19h-58.37s-71.13,0-71.13,0Z"/><rect class="cls-1" x="971.63" width="35.91" height="77.44" rx="4.19" ry="4.19"/><rect class="cls-1" x="1022.18" width="35.91" height="77.44" rx="4.19" ry="4.19"/><path class="cls-1" d="M831.06,159.22h-48.48c-2.27,0-4.13,1.8-4.19,4.07-.97,40.42-16.04,80.32-28.8,102.86-1.28,2.26-.25,5.12,2.18,6.02l45.29,16.77c1.96,.73,4.16-.09,5.15-1.93,15.17-28.28,32.01-78.78,33.04-123.47,.05-2.36-1.83-4.31-4.2-4.31Z"/><path class="cls-1" d="M957.68,163.53c1.04,44.7,17.88,95.19,33.04,123.47,.99,1.84,3.19,2.66,5.15,1.93l45.29-16.77c2.43-.9,3.46-3.76,2.18-6.02-12.76-22.54-27.83-62.44-28.8-102.86-.05-2.27-1.92-4.07-4.19-4.07h-48.48c-2.36,0-4.25,1.95-4.2,4.31Z"/></g></g></svg>