<?xml version="1.0" encoding="UTF-8"?><svg id="_レイヤー_2" xmlns="http://www.w3.org/2000/svg" viewBox="0 0 650.53 697.3"><defs><style>.cls-1{fill:#fff;}</style></defs><g id="_レイヤー_2-2"><g><g><path class="cls-1" d="M76.9,421.9l126.84-140.06h241.82l148.26,145.07c39.71,120.57-67.14,124.9-67.14,124.9-.36,24.91-13.72,137.89-214.06,137.89s-237.88-78.1-237.88-121.29c0-12.67,.92-23.5,2.94-33.64"/><path d="M312.62,697.3c-89.67,0-156.46-15.44-198.52-45.89-40.85-29.58-46.96-64.69-46.96-82.99,0-13.4,.98-24.56,3.09-35.13l14.9,2.97c-1.91,9.56-2.79,19.78-2.79,32.16,0,15.4,5.28,45.07,40.67,70.69,39.42,28.54,103.22,43.01,189.62,43.01,194.71,0,206.15-108.63,206.46-130.41l.1-7.19,7.18-.29c.37-.02,38.71-2.03,57.74-29.6,13.53-19.6,14.55-47.71,3.06-83.58l-144.71-141.59H207.11l-124.58,137.56-11.26-10.2,129.1-142.55h248.28l151.8,148.53,.58,1.76c13.68,41.53,12.16,74.78-4.5,98.83-18.16,26.21-48.86,33.39-62.6,35.33-2.86,34.53-27.61,138.6-221.31,138.6Z"/></g><path d="M325.01,659.28c-33.02,0-61.49-5.59-82.31-16.16-22.19-11.27-34.78-27.55-36.44-47.1l-.7-8.23h203.57v7.6c0,1.33,.03,2.74,.07,4.21,.26,10.78,.66,27.07-11.91,39.95-12.97,13.29-36.61,19.75-72.28,19.75Zm-101.88-56.31c8.69,25.24,47.2,41.12,101.88,41.12,30.93,0,51.59-5.1,61.41-15.17,7.27-7.44,7.8-17.05,7.66-25.95H223.14Z"/><path d="M385.18,509.59c-33.91,0-60.78-1.66-77.58-18.36-11.69-11.62-17.14-28.92-17.14-54.44v-7.6h210.6v7.6c0,14.5-1.77,35.56-17.08,51.03-14.41,14.57-38.01,21.66-72.13,21.66-4.81,0-9.51,.03-14.08,.05-4.3,.03-8.5,.05-12.6,.05Zm-79.33-65.2c.92,16.83,5.01,28.67,12.46,36.07,14.34,14.26,43.05,14.1,79.38,13.89,4.6-.03,9.32-.05,14.16-.05,56.8,0,71.84-19.66,73.79-49.91h-179.79Z"/><rect x="413.68" y="433.28" width="15.19" height="36.12"/><path d="M158.84,509.59c-30.9,0-57.3-1.67-74.25-18.51-11.74-11.67-17.45-29.43-17.45-54.29v-7.6H252.31v7.6c0,32.39,0,72.69-69.71,72.69-4.14,0-8.23,.03-12.24,.05-3.9,.03-7.74,.05-11.51,.05Zm-76.3-65.2c.95,16.56,5.15,28.36,12.76,35.92,14.53,14.43,42.53,14.23,74.95,14.04,4.05-.03,8.17-.05,12.34-.05,48.09,0,53.87-18.77,54.46-49.91H82.54Z"/><rect x="174.32" y="433.28" width="15.19" height="36.12"/><g><path class="cls-1" d="M617.64,343.89c0,25.99-10.11,66.42-23.82,83.02h-105.4c-9.39-63.53-40.43-105.4-40.43-105.4-23.1,59.92-81.58,127.79-220.19,127.79v-49.09c-46.93,49.81-94.58,49.09-203.59,49.09,0,0-16.6-70.75-16.6-115.51C7.6,116.48,179.24,72.44,277.42,72.44c75.8,0,174.17,35.38,174.17,87.36,0,0,166.05-6.5,166.05,184.1Z"/><path d="M33.23,456.89h-15.04l-1.38-5.86c-.69-2.92-16.81-72.13-16.81-117.25,0-52.11,9.82-97.85,29.18-135.95,16.91-33.27,41.2-61.01,72.19-82.46,63.56-43.97,137.59-50.53,176.05-50.53s84.07,9.29,118.63,24.85c36.88,16.61,58.75,38.6,62.54,62.56,19.3,.71,72.62,6.45,114.22,46.45,34.79,33.45,52.42,82.3,52.42,145.18,0,26.92-10.5,69.63-25.56,87.86l-2.28,2.76h-115.54l-.96-6.49c-6.15-41.64-22.08-73.95-31.57-90.27-14.56,31.18-35.96,56.82-63.76,76.34-40.45,28.4-93.54,42.8-157.78,42.8h-7.6v-38.81c-43.96,38.23-92.41,38.81-186.97,38.81Zm-2.95-15.19h3.08c102.42,0,145.53-.66,188.91-46.71l13.12-13.93v60.57c131.4-2.42,184.3-67.82,205.51-122.85l4.97-12.88,8.22,11.09c1.27,1.71,30.23,41.32,40.8,102.33h95.13c9.85-14.54,20.03-47.9,20.03-75.43,0-58.52-16.03-103.64-47.64-134.11-45.87-44.22-109.88-42.4-110.53-42.39l-7.87,.29v-7.88c0-27.71-33.96-47.13-54.19-56.25-32.7-14.72-74.71-23.51-112.39-23.51-29.54,0-105,4.66-167.41,47.83C47.09,171.39,15.19,240.67,15.19,333.78c0,35.99,11.19,90.16,15.09,107.92Z"/></g><rect x="315.48" y="367.7" width="192.76" height="15.19" transform="translate(-30.79 36.87) rotate(-4.94)"/><rect x="148.99" y="278.92" width="15.19" height="192.76" transform="translate(-230.8 498.97) rotate(-85.06)"/><polygon points="494.57 542.21 296 542.21 296 495.63 311.19 495.63 311.19 527.02 479.38 527.02 479.38 495.63 494.57 495.63 494.57 542.21"/><polygon points="244.77 542.21 69.31 542.21 69.31 481.23 84.5 481.23 84.5 527.02 229.58 527.02 229.58 495.63 244.77 495.63 244.77 542.21"/><path d="M272.55,563.38c-20.67,0-42.97-14.03-42.97-36.69,0-14.89,8.61-32.29,32.86-32.29,13.52,0,26.2,9.65,32.3,24.58l-14.06,5.75c-4.56-11.17-12.68-15.13-18.24-15.13-15.38,0-17.67,10.71-17.67,17.09,0,14.03,16.13,21.5,27.78,21.5v15.19Z"/><g><g><polygon class="cls-1" points="625.21 55.26 557.06 7.63 505.77 8.44 477.08 49.5 493.95 97.94 562.1 145.57 613.38 144.76 642.08 103.7 625.21 55.26"/><path d="M559.76,153.2l-72.18-50.45-18.95-54.43L501.77,.9l57.62-.9,72.18,50.45,18.95,54.43-33.15,47.43-57.62,.91Zm-59.45-60.08l64.13,44.82,44.95-.71,24.25-34.7-14.78-42.45-64.13-44.82-44.95,.71-24.25,34.7,14.78,42.45Z"/></g><g><polyline class="cls-1" points="505.78 8.43 522.65 56.87 590.8 104.5 642.09 103.69"/><polygon points="588.47 112.13 516.28 61.69 498.61 10.93 512.95 5.93 529.01 52.05 593.14 96.87 641.97 96.1 642.21 111.29 588.47 112.13"/></g><g><rect class="cls-1" x="447.41" y="108.9" width="79.54" height="142.59" transform="translate(191.08 -246.59) rotate(34.95)"/><path d="M480.81,271.99l-77.65-54.27,90.38-129.32,77.65,54.27-90.38,129.32Zm-56.49-58.02l52.74,36.86,72.98-104.42-52.74-36.86-72.98,104.42Z"/></g><rect x="543.9" y="48.47" width="60.07" height="15.19" transform="translate(94.61 376.68) rotate(-39.36)"/><rect x="504.2" y="103.27" width="15.19" height="83.38" transform="translate(219.78 589.58) rotate(-72.52)"/><rect x="482.7" y="134.04" width="15.19" height="83.38" transform="translate(175.39 590.59) rotate(-72.52)"/><rect x="461.19" y="164.82" width="15.19" height="83.38" transform="translate(130.99 591.6) rotate(-72.52)"/><g><path class="cls-1" d="M431.58,233.62c41.16-13.51,106.23,30.84,91.66,89.99"/><path d="M530.61,325.43l-14.75-3.63c5.59-22.71-1.77-45.53-20.2-62.61-18.11-16.79-43.49-24.33-61.72-18.35l-4.74-14.43c23.61-7.74,54.46,.95,76.78,21.64,22.6,20.95,31.57,49.15,24.62,77.39Z"/></g><g><path class="cls-1" d="M353.88,194.77c43.37-9.6,93.96,31.13,91.6,68"/><path d="M453.06,263.25l-15.16-.97c.88-13.69-7.36-29.38-22.03-41.95-18.02-15.44-41.15-22.4-60.34-18.14l-3.28-14.83c23.76-5.26,51.94,2.95,73.51,21.44,18.28,15.66,28.49,36.02,27.31,54.46Z"/></g></g></g></g></svg>